<svg width="48" height="48" viewBox="0 0 48 48" fill="none" xmlns="http://www.w3.org/2000/svg">
<rect width="48" height="48" rx="7" fill="#CEE3D2"/>
<g clip-path="url(#clip0_815_127)">
<path d="M14 29H12L9 36H11L14 29Z" fill="black"/>
<path fill-rule="evenodd" clip-rule="evenodd" d="M17.0001 29H19.0001L16.4287 35H14.4287L17.0001 29Z" fill="black"/>
<path fill-rule="evenodd" clip-rule="evenodd" d="M22 29H24L21.8571 34H19.8571L22 29ZM19.0001 35.9998L19 36H19.0001V35.9998Z" fill="black"/>
<mask id="path-5-inside-1_815_127" fill="white">
<path fill-rule="evenodd" clip-rule="evenodd" d="M28 20C28 17.2386 30.2386 15 33 15C35.7614 15 38 17.2386 38 20V28.101C39.2372 29.3636 40 31.0927 40 33C40 36.866 36.866 40 33 40C29.134 40 26 36.866 26 33C26 31.0927 26.7628 29.3636 28 28.101V20Z"/>
</mask>
<path d="M38 28.101H36V28.9176L36.5715 29.5008L38 28.101ZM28 28.101L29.4285 29.5008L30 28.9176V28.101H28ZM33 13C29.134 13 26 16.134 26 20H30C30 18.3431 31.3431 17 33 17V13ZM40 20C40 16.134 36.866 13 33 13V17C34.6569 17 36 18.3431 36 20H40ZM40 28.101V20H36V28.101H40ZM36.5715 29.5008C37.4572 30.4047 38 31.637 38 33H42C42 30.5484 41.0171 28.3224 39.4285 26.7012L36.5715 29.5008ZM38 33C38 35.7614 35.7614 38 33 38V42C37.9706 42 42 37.9706 42 33H38ZM33 38C30.2386 38 28 35.7614 28 33H24C24 37.9706 28.0294 42 33 42V38ZM28 33C28 31.637 28.5428 30.4047 29.4285 29.5008L26.5715 26.7012C24.9829 28.3224 24 30.5484 24 33H28ZM26 20V28.101H30V20H26Z" fill="black" mask="url(#path-5-inside-1_815_127)"/>
<rect x="32" y="21" width="2" height="11" rx="1" fill="black"/>
<circle cx="33" cy="33" r="3" fill="black"/>
<path fill-rule="evenodd" clip-rule="evenodd" d="M30.4441 14C29.892 12.4382 28.9164 11.0514 27.6165 10.0007C26.0151 8.70617 24.0181 8 21.9588 8C19.8996 8 17.9026 8.70617 16.3012 10.0007C14.6997 11.2952 13.5906 13.0997 13.1588 15.1132C11.5897 15.4441 10.1983 16.3433 9.2521 17.6381C8.30589 18.9328 7.87169 20.5316 8.03297 22.1271C8.19426 23.7226 8.93965 25.2021 10.1258 26.2813C11.312 27.3605 12.8552 27.963 14.4588 27.9732H26V25.9732H14.4588C13.2654 26.0209 12.1018 25.5926 11.2241 24.7825C10.3465 23.9723 9.82658 22.8467 9.77884 21.6532C9.7311 20.4597 10.1594 19.2962 10.9696 18.4185C11.7797 17.5408 12.9054 17.0209 14.0988 16.9732H14.9588L15.0188 16.1132C15.2285 14.4198 16.0495 12.8612 17.3275 11.7305C18.6055 10.5998 20.2525 9.9749 21.9588 9.9732C23.6644 9.98583 25.3067 10.6207 26.5772 11.7587C27.2836 12.3913 27.848 13.1552 28.2443 14H30.4441Z" fill="black"/>
</g>
<defs>
<clipPath id="clip0_815_127">
<rect width="32" height="32" fill="white" transform="translate(8 8)"/>
</clipPath>
</defs>
</svg>
